<svg width="36" height="36" viewBox="0 0 36 36" fill="none" xmlns="http://www.w3.org/2000/svg">
<circle cx="18" cy="18" r="18" fill="#363436"/>
<path d="M26.0357 17.1519H12.9755L20.7924 10.3662C20.9174 10.2568 20.8415 10.0537 20.6764 10.0537H18.7009C18.6139 10.0537 18.5313 10.085 18.4665 10.1408L10.0313 17.46C9.95402 17.5269 9.89206 17.6097 9.8496 17.7027C9.80713 17.7957 9.78516 17.8968 9.78516 17.999C9.78516 18.1013 9.80713 18.2023 9.8496 18.2953C9.89206 18.3883 9.95402 18.4711 10.0313 18.5381L18.5157 25.9019C18.5491 25.9309 18.5893 25.9466 18.6317 25.9466H20.6741C20.8393 25.9466 20.9152 25.7412 20.7902 25.6341L12.9755 18.8484H26.0357C26.134 18.8484 26.2143 18.768 26.2143 18.6698V17.3305C26.2143 17.2323 26.134 17.1519 26.0357 17.1519Z" fill="white" fill-opacity="0.85"/>
</svg>
